<svg width="98" height="98" viewBox="0 0 98 98" fill="none" xmlns="http://www.w3.org/2000/svg">
<g clip-path="url(#clip0_49_1251)">
<path d="M22.4447 19.4337C36.9132 6.34595 58.566 6.14583 73.2346 18.0929L61.6078 18.5331C60.1069 18.5932 58.9462 19.8339 59.0063 21.3348C59.0663 22.7957 60.267 23.9363 61.7078 23.9363C61.7479 23.9363 61.7679 23.9363 61.8079 23.9363L79.6584 23.2759C81.1193 23.2159 82.26 22.0352 82.26 20.5743V20.3742C82.26 20.3342 82.26 20.3142 82.26 20.2742V20.2542L81.5996 2.60374C81.5396 1.10285 80.2788 -0.0578306 78.7979 0.0022048C77.297 0.0622402 76.1364 1.30297 76.1964 2.80386L76.6166 13.8704C69.3524 7.92688 60.4071 4.48485 50.8414 4.00457C38.9944 3.40421 27.6077 7.46661 18.8226 15.4313C6.73542 26.3778 1.6124 43.0276 5.45467 58.8769C5.75484 60.1177 6.85549 60.9382 8.07621 60.9382C8.29634 60.9382 8.49646 60.9181 8.71659 60.8581C10.1574 60.4979 11.058 59.037 10.6978 57.5962C7.33578 43.668 11.8184 29.0393 22.4447 19.4337Z" fill="#C9BAB4"/>
<path d="M92.5462 39.1253C92.186 37.6844 90.7252 36.7839 89.2843 37.1441C87.8435 37.5043 86.9429 38.9652 87.3031 40.406C90.6851 54.3342 86.1825 68.9629 75.5562 78.5685C68.0918 85.3125 58.7263 88.6345 49.4008 88.6345C40.4955 88.6345 31.6103 85.6127 24.4461 79.6492L36.213 78.5886C37.6939 78.4485 38.7945 77.1477 38.6544 75.6468C38.5144 74.1459 37.2136 73.0653 35.7127 73.2054L17.9222 74.8063C16.4413 74.9464 15.3407 76.2472 15.4808 77.7481L17.0817 95.5386C17.2018 96.9394 18.3825 98 19.7633 98C19.8433 98 19.9234 98 20.0034 97.98C21.4843 97.8399 22.585 96.5391 22.4449 95.0383L21.4843 84.2119C28.7486 90.0953 37.6539 93.5174 47.1595 93.9976C47.9199 94.0377 48.6804 94.0577 49.4208 94.0577C60.4473 94.0577 70.9335 90.0153 79.1783 82.5709C91.2655 71.6244 96.3885 54.9946 92.5462 39.1253Z" fill="#C9BAB4"/>
</g>
<defs>
<clipPath id="clip0_49_1251">
<rect width="98" height="98" fill="white"/>
</clipPath>
</defs>
</svg>
