<svg width="156" height="24" viewBox="0 0 156 24" fill="none" xmlns="http://www.w3.org/2000/svg">
<path d="M5.80752 16.0487V20.0533H16.245C16.5483 20.0533 16.7805 19.9853 16.9423 19.8486C17.1035 19.7123 17.2331 19.4638 17.3314 19.1026H17.7349V24H17.3314C17.2432 23.6535 17.1157 23.4081 16.9494 23.265C16.7827 23.121 16.5474 23.0493 16.2435 23.0493H0.910156V22.6458C1.25666 22.5576 1.50176 22.4301 1.64514 22.2631C1.78883 22.0962 1.86083 21.8603 1.86083 21.556V8.06339C1.86083 7.75916 1.79159 7.52877 1.6528 7.3716C1.51402 7.21443 1.26647 7.08177 0.910156 6.97362V6.57044H15.7695C16.0823 6.57044 16.3195 6.5012 16.4812 6.36241C16.643 6.22362 16.7726 5.97607 16.8706 5.61976H17.2741V10.5174H16.8706C16.7726 10.1568 16.6433 9.90837 16.4821 9.77142C16.321 9.63508 16.0842 9.56645 15.772 9.56645H5.80752V13.1676H11.9965C12.2995 13.1676 12.5318 13.0983 12.6929 12.9595C12.8541 12.8207 12.9886 12.5732 13.0961 12.2169H13.4993V16.9994H13.0961C12.9981 16.6483 12.8685 16.4019 12.7073 16.2607C12.5462 16.1195 12.309 16.0487 11.9965 16.0487H5.80752ZM5.3835 0.491699H9.87829V0.895192C9.60378 0.92491 9.46652 1.01805 9.46652 1.1746C9.46652 1.23343 9.48582 1.30696 9.52535 1.39519L10.4962 3.79348C10.5845 4.00947 10.6776 4.15163 10.7757 4.22025C10.8737 4.28919 11.0404 4.32319 11.2757 4.32319V4.72638H8.0615V4.32319H8.13533C8.33111 4.32319 8.42914 4.24476 8.42914 4.0879C8.42914 3.99967 8.39943 3.92123 8.34091 3.85261L6.25176 1.29256C6.05537 1.03766 5.76616 0.904996 5.3835 0.895192V0.491699Z" fill="white"/>
<path d="M35.486 16.9268H31.2838C31.0261 16.9268 30.8328 16.985 30.7038 17.1014C30.5748 17.2179 30.4688 17.4256 30.3858 17.7249H29.9869V13.7595H30.3858C30.4688 14.0671 30.5745 14.277 30.7032 14.3891C30.8319 14.5013 31.0249 14.5573 31.2825 14.5573H39.3515V14.9562C39.0567 15.0395 38.8499 15.1474 38.7314 15.2804C38.6128 15.4133 38.5534 15.6088 38.5534 15.8664V19.3585C38.5534 19.6161 38.6107 19.8116 38.7253 19.9446C38.8398 20.0775 39.0485 20.1857 39.3515 20.2687V20.5803C36.1196 22.4259 32.9878 23.3484 29.9557 23.3484C27.2057 23.3484 24.9627 22.6958 23.2265 21.3907C21.0414 19.7448 19.9492 17.4587 19.9492 14.5325C19.9492 11.8061 20.922 9.63636 22.8671 8.02331C24.7127 6.49389 27.1649 5.72888 30.224 5.72888C31.1968 5.72888 32.1131 5.81834 32.9734 5.99696C33.8337 6.17588 34.8126 6.47704 35.91 6.90106C36.4753 7.12564 36.8781 7.23777 37.1196 7.23777C37.2942 7.23777 37.4976 7.14218 37.7305 6.951L38.0797 7.1382L36.0782 11.2157L35.7167 11.0297C35.7084 10.7568 35.671 10.5604 35.6045 10.4403C35.5381 10.3202 35.3886 10.1734 35.1557 9.99941C34.6487 9.6189 33.9054 9.29414 32.9247 9.02515C31.9443 8.75646 31.0178 8.62196 30.1453 8.62196C28.3671 8.62196 26.8922 9.12043 25.721 10.1168C24.3999 11.246 23.7394 12.7369 23.7394 14.5886C23.7394 16.3824 24.3833 17.8315 25.672 18.9357C26.8524 19.9489 28.4069 20.4553 30.3356 20.4553C31.2749 20.4553 32.2017 20.3475 33.1162 20.1312C34.0304 19.9152 34.8202 19.6198 35.4854 19.2457V16.9268H35.486Z" fill="white"/>
<path d="M51.6128 5.72913C54.5821 5.72913 56.9363 6.53152 58.6749 8.13568C60.5132 9.81491 61.4323 11.9846 61.4323 14.6446C61.4323 16.2739 60.9914 17.7953 60.1097 19.2083C58.3879 21.9684 55.5637 23.348 51.6376 23.348C48.6928 23.348 46.3515 22.5459 44.6128 20.9414C43.6811 20.0854 42.974 19.0585 42.4918 17.8615C42.0675 16.806 41.8555 15.696 41.8555 14.5321C41.8555 12.8281 42.292 11.2693 43.1655 9.85597C44.8374 7.15498 47.6529 5.77906 51.6128 5.72913ZM51.625 8.6222C50.0022 8.6222 48.6499 9.10382 47.5681 10.0671C46.2865 11.2049 45.6459 12.6954 45.6459 14.5389C45.6459 16.3823 46.2865 17.8731 47.5681 19.0107C48.6499 19.9739 50.0105 20.4555 51.6499 20.4555C53.2892 20.4555 54.6456 19.9739 55.7191 19.0107C56.3597 18.4378 56.8505 17.7359 57.1921 16.9056C57.4914 16.1666 57.6413 15.4025 57.6413 14.6136C57.6413 12.6872 57.0003 11.1715 55.7191 10.0671C54.629 9.12037 53.2644 8.63875 51.625 8.6222Z" fill="white"/>
<path d="M84.8155 15.6176H75.0021V21.7527C75.0021 22.0021 75.0621 22.1954 75.1828 22.3324C75.3032 22.4696 75.5091 22.5756 75.8002 22.6504V23.0493H70.4883V22.6504C70.7876 22.5674 70.9953 22.4592 71.1118 22.3262C71.2282 22.1933 71.2864 22.0021 71.2864 21.7527V7.32562C71.2864 7.07624 71.2282 6.88506 71.1118 6.75209C70.9953 6.61913 70.7876 6.51098 70.4883 6.42795V6.02905H75.8002V6.42795C75.5008 6.50271 75.2931 6.60871 75.1767 6.74597C75.0603 6.88322 75.0021 7.07654 75.0021 7.32593V12.8125H84.8155V7.32532C84.8155 7.07593 84.7573 6.88261 84.6408 6.74535C84.5244 6.6081 84.3167 6.50209 84.0174 6.42734V6.02844H89.3293V6.42734C89.0299 6.51037 88.8222 6.61852 88.7058 6.75148C88.5894 6.88445 88.5312 7.07562 88.5312 7.32501V21.7521C88.5312 22.0015 88.5894 22.1927 88.7058 22.3256C88.8222 22.4586 89.0299 22.5667 89.3293 22.6498V23.0487H84.0174V22.6498C84.3081 22.575 84.514 22.469 84.6347 22.3318C84.7551 22.1945 84.8155 22.0015 84.8155 21.7521V15.6176Z" fill="white"/>
<path d="M101.754 5.72913C104.723 5.72913 107.077 6.53152 108.816 8.13568C110.654 9.81491 111.573 11.9846 111.573 14.6446C111.573 16.2739 111.132 17.7953 110.251 19.2083C108.529 21.9684 105.705 23.348 101.779 23.348C98.8337 23.348 96.4924 22.5459 94.7538 20.9414C93.8221 20.0854 93.115 19.0585 92.6324 17.8615C92.2081 16.806 91.9961 15.696 91.9961 14.5321C91.9961 12.8281 92.4327 11.2693 93.3061 9.85597C94.9786 7.15498 97.7942 5.77906 101.754 5.72913ZM101.766 8.6222C100.143 8.6222 98.7911 9.10382 97.7093 10.0671C96.4278 11.2049 95.7871 12.6954 95.7871 14.5389C95.7871 16.3823 96.4278 17.8731 97.7093 19.0107C98.7911 19.9739 100.152 20.4555 101.791 20.4555C103.431 20.4555 104.787 19.9739 105.86 19.0107C106.501 18.4378 106.992 17.7359 107.333 16.9056C107.633 16.1666 107.783 15.4025 107.783 14.6136C107.783 12.6872 107.142 11.1715 105.86 10.0671C104.77 9.12037 103.406 8.63875 101.766 8.6222Z" fill="white"/>
<path d="M124.723 23.0493L118.444 11.2908V21.7402C118.444 21.9979 118.503 22.1933 118.619 22.3263C118.735 22.4593 118.943 22.5674 119.242 22.6504V23.0493H114.242V22.6504C114.542 22.5674 114.749 22.4593 114.866 22.3263C114.982 22.1933 115.04 21.9979 115.04 21.7402V7.32538C115.04 7.07599 114.982 6.88481 114.866 6.75185C114.749 6.61888 114.542 6.51073 114.242 6.42771V6.02881H120.803V6.42771C120.412 6.52758 120.217 6.75614 120.217 7.11367C120.217 7.28003 120.275 7.47121 120.392 7.6872L125.035 16.4856L129.74 7.83671C129.948 7.45436 130.052 7.17587 130.052 7.00124C130.052 6.66055 129.844 6.46937 129.429 6.42771V6.02881H135.864V6.42771C135.565 6.51104 135.357 6.61888 135.241 6.75185C135.125 6.88481 135.066 7.07599 135.066 7.32538V21.7399C135.066 21.9976 135.125 22.193 135.241 22.326C135.357 22.459 135.565 22.5671 135.864 22.6501V23.049H130.553V22.6501C130.843 22.5754 131.049 22.4694 131.17 22.3321C131.29 22.1949 131.351 21.9976 131.351 21.7399V11.2905L124.723 23.0493Z" fill="white"/>
<path d="M143.432 15.5799V20.2435H154.38C154.629 20.2435 154.821 20.1853 154.953 20.0689C155.086 19.9525 155.195 19.7448 155.278 19.4454H155.677V23.8471H155.278C155.195 23.5478 155.086 23.34 154.953 23.2236C154.821 23.1072 154.629 23.049 154.38 23.049H138.918V22.6501C139.217 22.5671 139.425 22.4589 139.541 22.3259C139.658 22.193 139.716 21.9975 139.716 21.7398V7.33788C139.716 7.08022 139.658 6.88476 139.541 6.75179C139.425 6.61883 139.217 6.51068 138.918 6.42765V6.02845H154.081C154.33 6.02845 154.522 5.96932 154.654 5.85045C154.787 5.73188 154.896 5.52508 154.979 5.23035H155.378V9.632H154.979C154.895 9.33635 154.787 9.12955 154.654 9.01129C154.522 8.89334 154.33 8.8339 154.081 8.8339H143.432V12.874H150.34C150.589 12.874 150.78 12.8158 150.913 12.6994C151.046 12.583 151.154 12.3753 151.238 12.0759H151.636V16.378H151.238C151.154 16.0873 151.046 15.8814 150.913 15.7607C150.78 15.6403 150.589 15.5799 150.34 15.5799H143.432Z" fill="white"/>
</svg>
